<svg width="36" height="36" viewBox="0 0 36 36" fill="none" xmlns="http://www.w3.org/2000/svg">
<g clip-path="url(#clip0_5055_185)">
<path d="M34.2168 29.8821C30.6174 27.9874 27.8646 26.9355 25.4184 26.5204L25.6848 26.1544C25.7892 26.011 25.8252 25.8285 25.7814 25.6563L25.2246 23.4285C26.7174 21.3237 27.6 18.6945 27.6 16.2015V15.6016H8.40005V16.2015C8.40005 18.6945 9.28267 21.3237 10.7748 23.4285L10.218 25.6563C10.1749 25.8285 10.2102 26.011 10.3146 26.1544L10.581 26.5204C8.13542 26.9355 5.38205 27.9874 1.78268 29.8821C0.682818 30.4605 0 31.5921 0 32.8359V35.4015C0 35.7333 0.268209 36.0015 0.599968 36.0015H35.4C35.7311 36.0015 35.9999 35.7333 35.9999 35.4015V32.8359C36 31.5921 35.3165 30.4605 34.2168 29.8821ZM15.474 31.2081L11.4498 25.6749L11.7192 24.5985C11.7204 24.6003 11.7222 24.6015 11.7234 24.6033C13.1736 26.1795 15.018 27.2907 17.0976 27.5439C17.0988 27.5439 17.1 27.5444 17.1018 27.5444L15.474 31.2081ZM20.526 31.2081L18.8982 27.5445C18.8995 27.5445 18.9007 27.5439 18.9018 27.5439C20.9814 27.2907 22.8258 26.1795 24.276 24.6034C24.2772 24.6016 24.279 24.6004 24.2802 24.5986L24.5502 25.675L20.526 31.2081Z" fill="white"/>
<path d="M8.39973 11.544V14.4H27.5997V11.544C28.7325 10.635 29.3997 9.258 29.3997 7.80001C29.3997 5.15345 27.2463 2.99998 24.5996 2.99998C23.9042 2.99998 23.2274 3.14881 22.604 3.43561C22.0154 1.42618 20.1692 0 17.9996 0C15.8301 0 13.9839 1.42618 13.3953 3.43561C12.7719 3.14881 12.095 2.99998 11.3996 2.99998C8.75307 2.99998 6.59961 5.15338 6.59961 7.80001C6.59968 9.258 7.26692 10.635 8.39973 11.544Z" fill="white"/>
</g>
<defs>
<clipPath id="clip0_5055_185">
<rect width="36" height="36" fill="white"/>
</clipPath>
</defs>
</svg>
