<svg width="36" height="36" viewBox="0 0 36 36" fill="none" xmlns="http://www.w3.org/2000/svg">
<mask id="mask0_5055_60" style="mask-type:luminance" maskUnits="userSpaceOnUse" x="3" y="3" width="30" height="30">
<path d="M32.5912 3.375H3.375V32.5907H32.5912V3.375Z" fill="white"/>
</mask>
<g mask="url(#mask0_5055_60)">
<path d="M14.3691 4.5H6.1875C5.25552 4.5 4.5 5.25552 4.5 6.1875V16.2737C4.5 17.2057 5.25552 17.9612 6.1875 17.9612H14.3691C15.3011 17.9612 16.0566 17.2057 16.0566 16.2737V6.1875C16.0566 5.25552 15.3011 4.5 14.3691 4.5Z" stroke="white" stroke-width="3.75" stroke-linecap="round" stroke-linejoin="round"/>
<path d="M29.7787 4.5H21.5972C20.6652 4.5 19.9097 5.25552 19.9097 6.1875V8.5905C19.9097 9.52251 20.6652 10.278 21.5972 10.278H29.7787C30.7107 10.278 31.4662 9.52251 31.4662 8.5905V6.1875C31.4662 5.25552 30.7107 4.5 29.7787 4.5Z" stroke="#D8C3A5" stroke-width="3.75" stroke-linecap="round" stroke-linejoin="round"/>
<path d="M29.7787 14.1289H21.5972C20.6652 14.1289 19.9097 14.8844 19.9097 15.8164V29.7771C19.9097 30.7091 20.6652 31.4646 21.5972 31.4646H29.7787C30.7107 31.4646 31.4662 30.7091 31.4662 29.7771V15.8164C31.4662 14.8844 30.7107 14.1289 29.7787 14.1289Z" stroke="white" stroke-width="3.75" stroke-linecap="round" stroke-linejoin="round"/>
<path d="M14.3691 21.8359H6.1875C5.25552 21.8359 4.5 22.5914 4.5 23.5234V29.779C4.5 30.7109 5.25552 31.4665 6.1875 31.4665H14.3691C15.3011 31.4665 16.0566 30.7109 16.0566 29.779V23.5234C16.0566 22.5914 15.3011 21.8359 14.3691 21.8359Z" stroke="#D8C3A5" stroke-width="3.75" stroke-linecap="round" stroke-linejoin="round"/>
</g>
</svg>
