<svg width="36" height="36" viewBox="0 0 36 36" fill="none" xmlns="http://www.w3.org/2000/svg">
<g clip-path="url(#clip0_5055_179)">
<path d="M8.50476 30.5579L14.5956 23.1721L17.3817 26.7258L12.0116 33.5549C9.95495 36.1682 6.14929 33.4143 8.50476 30.5579ZM15.618 13.7385C16.1981 11.846 15.9315 10.2288 13.7518 7.82643L8.42565 1.4192C7.6698 0.531508 5.88854 1.83522 6.63269 2.91041L10.8925 8.15749C11.6981 9.136 10.201 10.4309 9.36901 9.42311L4.96276 3.99733C4.14245 3.0569 2.44616 4.29909 3.30456 5.37428C4.54675 6.86842 6.46862 9.30885 7.71081 10.803C8.57214 11.679 7.26257 12.9768 6.41296 11.884L2.03894 6.49342C1.39733 5.79616 0.348505 6.22975 0.0701852 7.0442C-0.228643 7.91432 0.506709 8.55006 1.00769 9.19459L5.88855 15.4993C7.40319 17.2542 9.09655 18.2942 11.0653 17.7053C11.3671 17.6145 11.7362 17.4299 12.1317 17.1868L25.245 34.1145C25.951 35.0257 27.3133 35.1223 28.1981 34.387L28.4003 34.22C29.3964 33.3909 29.5575 31.8762 28.705 30.8977L14.8182 14.9426C15.2225 14.4915 15.5184 14.0637 15.618 13.7385ZM19.33 17.4299L21.4891 14.8108C18.7118 7.92604 29.0038 -1.24974 33.993 2.96901C40.0546 8.09889 31.0458 20.4622 24.7147 17.4065L22.1571 20.6555L19.33 17.4299Z" fill="white"/>
</g>
<defs>
<clipPath id="clip0_5055_179">
<rect width="36" height="36" fill="white"/>
</clipPath>
</defs>
</svg>
