<svg width="52" height="42" viewBox="0 0 52 42" fill="none" xmlns="http://www.w3.org/2000/svg">
<path d="M13.9166 30.6641C11.6726 30.6641 9.47292 30.0392 7.56404 28.8594C5.65516 27.6797 4.11252 25.9917 3.10896 23.9846C2.10541 21.9774 1.68059 19.7305 1.88211 17.4956C2.08364 15.2606 2.90355 13.1259 4.24996 11.3307C9.38537 4.49156 16.3333 1.66406 26 1.66406C35.6666 1.66406 50.1666 8.58781 50.1666 17.3724C50.1666 18.9747 49.5301 20.5115 48.3971 21.6445C47.264 22.7775 45.7273 23.4141 44.125 23.4141H35.6666C32.467 23.3343 26 24.6224 20.5963 28.651C18.6161 29.9642 16.2927 30.6644 13.9166 30.6641Z" stroke="black" stroke-width="3" stroke-linecap="round" stroke-linejoin="round"/>
<path d="M50.1666 17.375V18.5833C50.1666 25.4177 50.1666 28.8373 48.0424 30.9591C45.9205 33.0833 42.501 33.0833 35.6666 33.0833C32.467 33.006 26 34.2917 20.5963 38.3203C18.7756 39.528 16.6616 40.2196 14.4791 40.3213C12.2967 40.423 10.1275 39.9311 8.2024 38.8978C6.27732 37.8646 4.66839 36.3288 3.54685 34.4538C2.4253 32.5788 1.83311 30.4348 1.8333 28.25V18.5833" stroke="black" stroke-width="3" stroke-linecap="round" stroke-linejoin="round"/>
<path d="M10.2916 18.5781C10.2916 19.5395 10.6735 20.4616 11.3534 21.1414C12.0332 21.8212 12.9552 22.2031 13.9166 22.2031C14.878 22.2031 15.8001 21.8212 16.4799 21.1414C17.1597 20.4616 17.5416 19.5395 17.5416 18.5781C17.5416 17.6167 17.1597 16.6947 16.4799 16.0149C15.8001 15.335 14.878 14.9531 13.9166 14.9531C12.9552 14.9531 12.0332 15.335 11.3534 16.0149C10.6735 16.6947 10.2916 17.6167 10.2916 18.5781Z" stroke="black" stroke-width="3" stroke-linecap="round" stroke-linejoin="round"/>
</svg>
