<svg width="78" height="78" viewBox="0 0 78 78" fill="none" xmlns="http://www.w3.org/2000/svg">
<g clip-path="url(#clip0_2415_532)">
<path d="M54.8356 27.0197C54.4972 26.1432 53.979 25.3473 53.3142 24.6833C52.6495 24.0193 51.8531 23.5019 50.9763 23.1644C49.7689 22.7172 48.4937 22.4808 47.2062 22.4656C45.0653 22.3681 44.4234 22.3438 39 22.3438C33.5766 22.3438 32.9347 22.3681 30.7937 22.4656C29.505 22.4804 28.2283 22.7167 27.0197 23.1644C26.1432 23.5028 25.3473 24.0211 24.6833 24.6858C24.0193 25.3505 23.5019 26.1469 23.1644 27.0237C22.7172 28.2311 22.4808 29.5063 22.4656 30.7937C22.3681 32.9347 22.3438 33.5766 22.3438 39C22.3438 44.4234 22.3681 45.0653 22.4656 47.2062C22.4804 48.495 22.7167 49.7717 23.1644 50.9803C23.5028 51.8568 24.0211 52.6527 24.6858 53.3167C25.3505 53.9807 26.1469 54.4981 27.0237 54.8356C28.2311 55.2828 29.5063 55.5192 30.7937 55.5344C32.9347 55.6319 33.5766 55.6562 39 55.6562C44.4234 55.6562 45.0653 55.6319 47.2062 55.5344C48.495 55.5196 49.7717 55.2833 50.9803 54.8356C51.8568 54.4972 52.6527 53.979 53.3167 53.3142C53.9807 52.6495 54.4981 51.8531 54.8356 50.9763C55.2828 49.7689 55.5192 48.4937 55.5344 47.2062C55.6319 45.0653 55.6562 44.4234 55.6562 39C55.6562 33.5766 55.6319 32.9347 55.5344 30.7937C55.5196 29.505 55.2833 28.2283 54.8356 27.0197ZM39 49.4325C36.9366 49.4325 34.9196 48.8206 33.204 47.6743C31.4884 46.528 30.1512 44.8986 29.3616 42.9923C28.572 41.0861 28.3654 38.9884 28.768 36.9647C29.1705 34.941 30.1641 33.0821 31.6231 31.6231C33.0821 30.1641 34.941 29.1705 36.9647 28.768C38.9884 28.3654 41.0861 28.572 42.9923 29.3616C44.8986 30.1512 46.528 31.4884 47.6743 33.204C48.8206 34.9196 49.4325 36.9366 49.4325 39C49.4325 41.7669 48.3334 44.4204 46.3769 46.3769C44.4204 48.3334 41.7669 49.4325 39 49.4325ZM49.8428 30.5947C49.3607 30.5947 48.8895 30.4517 48.4886 30.1839C48.0878 29.9161 47.7753 29.5354 47.5909 29.09C47.4064 28.6446 47.3581 28.1545 47.4521 27.6817C47.5462 27.2088 47.7784 26.7745 48.1192 26.4336C48.4601 26.0927 48.8945 25.8606 49.3673 25.7665C49.8401 25.6725 50.3302 25.7207 50.7756 25.9052C51.221 26.0897 51.6017 26.4021 51.8695 26.803C52.1374 27.2038 52.2803 27.6751 52.2803 28.1572C52.2803 28.8037 52.0235 29.4236 51.5664 29.8808C51.1093 30.3379 50.4893 30.5947 49.8428 30.5947Z" fill="#D8C3A5"/>
<path d="M39 45.7709C42.7401 45.7709 45.7722 42.7389 45.7722 38.9988C45.7722 35.2586 42.7401 32.2266 39 32.2266C35.2598 32.2266 32.2278 35.2586 32.2278 38.9988C32.2278 42.7389 35.2598 45.7709 39 45.7709Z" fill="#213639"/>
<path d="M39 0C31.2866 0 23.7463 2.28731 17.3328 6.57268C10.9193 10.8581 5.92053 16.949 2.96872 24.0753C0.016898 31.2017 -0.755432 39.0433 0.749392 46.6085C2.25422 54.1738 5.96861 61.1229 11.4229 66.5772C16.8771 72.0314 23.8262 75.7458 31.3915 77.2506C38.9568 78.7555 46.7984 77.9831 53.9247 75.0313C61.051 72.0795 67.142 67.0808 71.4273 60.6672C75.7127 54.2537 78 46.7135 78 39C78 28.6566 73.8911 18.7368 66.5772 11.4228C59.2633 4.10892 49.3435 0 39 0ZM59.1906 47.3769C59.1558 49.0612 58.8357 50.7274 58.2441 52.3047C57.7224 53.6538 56.9245 54.8789 55.9017 55.9017C54.879 56.9245 53.6538 57.7223 52.3047 58.2441C50.7274 58.8357 49.0612 59.1558 47.3769 59.1906C45.2075 59.2881 44.5169 59.3125 39 59.3125C33.4831 59.3125 32.7925 59.2881 30.6231 59.1906C28.9389 59.1558 27.2727 58.8357 25.6953 58.2441C24.3463 57.7223 23.1211 56.9245 22.0983 55.9017C21.0755 54.8789 20.2777 53.6538 19.756 52.3047C19.1643 50.7274 18.8442 49.0612 18.8094 47.3769C18.7119 45.2075 18.6875 44.5169 18.6875 39C18.6875 33.4831 18.7119 32.7925 18.8094 30.6231C18.8442 28.9388 19.1643 27.2726 19.756 25.6953C20.2777 24.3462 21.0755 23.1211 22.0983 22.0983C23.1211 21.0755 24.3463 20.2777 25.6953 19.7559C27.2727 19.1643 28.9389 18.8442 30.6231 18.8094C32.7925 18.7119 33.4831 18.6875 39 18.6875C44.5169 18.6875 45.2075 18.7119 47.3769 18.8094C49.0612 18.8442 50.7274 19.1643 52.3047 19.7559C53.6538 20.2777 54.879 21.0755 55.9017 22.0983C56.9245 23.1211 57.7224 24.3462 58.2441 25.6953C58.8357 27.2726 59.1558 28.9388 59.1906 30.6231C59.2881 32.7925 59.3125 33.4831 59.3125 39C59.3125 44.5169 59.2881 45.2075 59.1906 47.3769Z" fill="#D8C3A5"/>
</g>
<defs>
<clipPath id="clip0_2415_532">
<rect width="78" height="78" fill="white"/>
</clipPath>
</defs>
</svg>
