<svg width="78" height="78" viewBox="0 0 78 78" fill="none" xmlns="http://www.w3.org/2000/svg">
<g clip-path="url(#clip0_2415_528)">
<path d="M33.7109 46.9423L46.9514 38.9985L33.7109 31.0547V46.9423Z" fill="#D8C3A5"/>
<path d="M38.9998 0C17.462 0 -0.000244141 17.4598 -0.000244141 39C-0.000244141 60.5402 17.462 78 38.9998 78C60.5375 78 77.9998 60.5378 77.9998 39C77.9998 17.4622 60.5375 0 38.9998 0ZM60.1768 40.7087C60.1768 44.3649 59.7526 48.0212 59.7526 48.0212C59.7526 48.0212 59.3383 51.1363 58.0708 52.5038C56.4596 54.3026 54.6558 54.3124 53.8271 54.4196C47.8991 54.873 38.9998 54.8876 38.9998 54.8876C38.9998 54.8876 27.9871 54.7804 24.599 54.4342C23.6557 54.2466 21.5424 54.3002 19.9288 52.5038C18.6588 51.1339 18.2469 48.0212 18.2469 48.0212C18.2469 48.0212 17.8228 44.3674 17.8228 40.7087V37.2816C17.8228 33.6253 18.2469 29.9715 18.2469 29.9715C18.2469 29.9715 18.6613 26.8564 19.9288 25.4841C21.5399 23.6828 23.3437 23.673 24.1724 23.5706C30.098 23.1124 38.99 23.1124 38.99 23.1124H39.0095C39.0095 23.1124 47.9015 23.1124 53.8271 23.5706C54.6534 23.673 56.4596 23.6828 58.0708 25.4816C59.3407 26.8539 59.7526 29.9691 59.7526 29.9691C59.7526 29.9691 60.1768 33.6253 60.1768 37.2816V40.7087Z" fill="#D8C3A5"/>
</g>
<defs>
<clipPath id="clip0_2415_528">
<rect width="78" height="78" fill="white"/>
</clipPath>
</defs>
</svg>
