<svg width="30" height="30" viewBox="0 0 30 30" fill="none" xmlns="http://www.w3.org/2000/svg">
<g clip-path="url(#clip0_4986_134)">
<path fill-rule="evenodd" clip-rule="evenodd" d="M6.45457 14.9973C6.45457 14.0447 6.61279 13.1313 6.89519 12.2747L1.95218 8.5C0.988815 10.456 0.446045 12.66 0.446045 14.9973C0.446045 17.3327 0.988147 19.5353 1.95018 21.49L6.89052 17.708C6.61079 16.8553 6.45457 15.9453 6.45457 14.9973Z" fill="#FBBC05"/>
<path fill-rule="evenodd" clip-rule="evenodd" d="M15.1335 6.33203C17.2031 6.33203 19.0724 7.06536 20.5412 8.26536L24.8139 3.9987C22.2102 1.73203 18.8721 0.332031 15.1335 0.332031C9.32928 0.332031 4.34087 3.65136 1.95215 8.50136L6.89516 12.276C8.03411 8.8187 11.2807 6.33203 15.1335 6.33203Z" fill="#EB4335"/>
<path fill-rule="evenodd" clip-rule="evenodd" d="M15.1335 23.6667C11.2807 23.6667 8.03411 21.18 6.89516 17.7227L1.95215 21.4967C4.34087 26.3473 9.32928 29.6667 15.1335 29.6667C18.7159 29.6667 22.1361 28.3947 24.7031 26.0113L20.0111 22.384C18.6872 23.218 17.0202 23.6667 15.1335 23.6667Z" fill="#34A853"/>
<path fill-rule="evenodd" clip-rule="evenodd" d="M29.1534 14.9987C29.1534 14.132 29.0199 13.1987 28.8196 12.332H15.1335V17.9987H23.0114C22.6175 19.9307 21.5453 21.416 20.0111 22.3827L24.7031 26.01C27.3996 23.5074 29.1534 19.7794 29.1534 14.9987Z" fill="#4285F4"/>
</g>
<defs>
<clipPath id="clip0_4986_134">
<rect width="30" height="30" fill="white"/>
</clipPath>
</defs>
</svg>
