<svg width="42" height="42" viewBox="0 0 42 42" fill="none" xmlns="http://www.w3.org/2000/svg">
<g clip-path="url(#clip0_1540_649)">
<path d="M12.6117 41.9999C11.4556 41.9999 10.4663 41.589 9.64371 40.7672C8.82115 39.9454 8.40917 38.9563 8.40777 37.7999C8.40637 36.6435 8.81835 35.6551 9.64371 34.8348C10.4691 34.0144 11.4584 33.6028 12.6117 33.6C13.7649 33.5972 14.7549 34.0088 15.5817 34.8348C16.4085 35.6607 16.8197 36.6491 16.8155 37.7999C16.8113 38.9507 16.4001 39.9398 15.5817 40.7672C14.7633 41.5946 13.7733 42.0055 12.6117 41.9999ZM33.6311 41.9999C32.475 41.9999 31.4857 41.589 30.6631 40.7672C29.8406 39.9454 29.4286 38.9563 29.4272 37.7999C29.4258 36.6435 29.8378 35.6551 30.6631 34.8348C31.4885 34.0144 32.4778 33.6028 33.6311 33.6C34.7843 33.5972 35.7744 34.0088 36.6011 34.8348C37.4279 35.6607 37.8392 36.6491 37.835 37.7999C37.8307 38.9507 37.4195 39.9398 36.6011 40.7672C35.7828 41.5946 34.7927 42.0055 33.6311 41.9999ZM10.825 8.39999L15.8697 18.9H30.5833L36.3636 8.39999H10.825ZM8.82816 4.19999H39.8318C40.6375 4.19999 41.2506 4.55909 41.671 5.27729C42.0914 5.99549 42.1089 6.72139 41.7235 7.45499L34.2617 20.895C33.8763 21.595 33.3599 22.1375 32.7125 22.5225C32.0651 22.9075 31.3554 23.1 30.5833 23.1H14.9238L12.6117 27.3H37.835V31.5H12.6117C11.0352 31.5 9.8441 30.8091 9.03835 29.4273C8.23261 28.0455 8.19757 26.6714 8.93325 25.305L11.7709 20.16L4.20388 4.19999H0V0H6.83131L8.82816 4.19999Z" fill="black"/>
</g>
<defs>
<clipPath id="clip0_1540_649">
<rect width="42" height="42" fill="white"/>
</clipPath>
</defs>
</svg>
