<svg width="36" height="36" viewBox="0 0 36 36" fill="none" xmlns="http://www.w3.org/2000/svg">
<path d="M10.81 36C9.81907 36 8.97109 35.6478 8.26604 34.9434C7.56099 34.239 7.20786 33.3912 7.20666 32.4C7.20546 31.4088 7.55858 30.5616 8.26604 29.8584C8.97349 29.1552 9.82147 28.8024 10.81 28.8C11.7985 28.7976 12.6471 29.1504 13.3557 29.8584C14.0644 30.5664 14.4169 31.4136 14.4133 32.4C14.4097 33.3864 14.0572 34.2342 13.3557 34.9434C12.6543 35.6526 11.8057 36.0048 10.81 36ZM28.8266 36C27.8357 36 26.9877 35.6478 26.2827 34.9434C25.5776 34.239 25.2245 33.3912 25.2233 32.4C25.2221 31.4088 25.5752 30.5616 26.2827 29.8584C26.9901 29.1552 27.8381 28.8024 28.8266 28.8C29.8151 28.7976 30.6637 29.1504 31.3724 29.8584C32.081 30.5664 32.4336 31.4136 32.43 32.4C32.4264 33.3864 32.0738 34.2342 31.3724 34.9434C30.6709 35.6526 29.8224 36.0048 28.8266 36ZM9.27857 7.19999L13.6026 16.2H26.2142L31.1688 7.19999H9.27857ZM7.56699 3.6H34.1415C34.8322 3.6 35.3577 3.90779 35.718 4.52339C36.0783 5.13899 36.0933 5.76119 35.763 6.38999L29.3671 17.91C29.0368 18.51 28.5942 18.975 28.0393 19.305C27.4844 19.635 26.876 19.8 26.2142 19.8H12.7918L10.81 23.4H32.43V27H10.81C9.45874 27 8.4378 26.4078 7.74716 25.2234C7.05652 24.039 7.02649 22.8612 7.65707 21.69L10.0893 17.28L3.60333 3.6H0V0H5.85541L7.56699 3.6Z" fill="white"/>
</svg>
