<svg width="104" height="104" viewBox="0 0 104 104" fill="none" xmlns="http://www.w3.org/2000/svg">
<g clip-path="url(#clip0_2619_868)">
<path d="M102.96 51.2655C102.96 22.9524 80.007 0 51.694 0C23.3808 0 0.428467 22.9524 0.428467 51.2655C0.428467 79.5785 23.3808 102.531 51.694 102.531C80.007 102.531 102.96 79.5785 102.96 51.2655Z" fill="#213639"/>
<g filter="url(#filter0_d_2619_868)">
<path d="M39.1818 71.4919C49.4349 66.9661 57.0446 68.408 63.7732 71.4919L63.4126 71.1715L63.7732 62.3203L65.7756 57.8746C69.0598 57.2338 71.5222 56.7678 73.8259 54.1899C76.1305 51.6119 76.6295 50.0646 76.6295 46.9006C76.6295 43.7365 74.6398 40.0594 71.8634 38.3697C69.0871 36.6799 67.2575 35.9666 65.1348 37.1681C62.7718 39.4911 65.0547 35.6462 61.1697 31.601C58.9994 29.3412 55.4825 28.3168 55.4825 28.3168C55.4825 28.3168 49.2745 26.915 45.5898 28.9576C42.8313 30.4868 39.1818 33.8038 39.1818 38.3697C35.0968 37.1681 30.7747 38.4498 28.7683 41.2533C26.8051 43.9965 26.4971 46.24 26.8058 49.584C27.1183 52.9692 27.932 54.5711 31.0113 56.2325C34.0551 57.8746 34.1115 57.5262 36.0978 58.3552C37.2288 60.2007 37.7059 61.0507 38.3407 62.3203L39.1818 70.7309V71.4919Z" fill="url(#paint0_linear_2619_868)"/>
<path d="M39.1818 71.4919C49.4349 66.9661 57.0446 68.408 63.7732 71.4919L63.4126 71.1715L63.7732 62.3203L65.7756 57.8746C69.0598 57.2338 71.5222 56.7678 73.8259 54.1899C76.1305 51.6119 76.6295 50.0646 76.6295 46.9006C76.6295 43.7365 74.6398 40.0594 71.8634 38.3697C69.0871 36.6799 67.2575 35.9666 65.1348 37.1681C62.7718 39.4911 65.0547 35.6462 61.1697 31.601C58.9994 29.3412 55.4825 28.3168 55.4825 28.3168C55.4825 28.3168 49.2745 26.915 45.5898 28.9576C42.8313 30.4868 39.1818 33.8038 39.1818 38.3697C35.0968 37.1681 30.7747 38.4498 28.7683 41.2533C26.8051 43.9965 26.4971 46.24 26.8058 49.584C27.1183 52.9692 27.932 54.5711 31.0113 56.2325C34.0551 57.8746 34.1115 57.5262 36.0978 58.3552C37.2288 60.2007 37.7059 61.0507 38.3407 62.3203L39.1818 70.7309V71.4919Z" stroke="black" stroke-width="0.5"/>
</g>
<path d="M63.5897 71.3311C63.5897 71.6531 63.3612 72.0384 62.7555 72.4517C62.1616 72.8578 61.2785 73.2375 60.1549 73.5619C57.9127 74.21 54.7939 74.6153 51.334 74.6153C47.8713 74.6153 44.7407 74.2492 42.4871 73.6404C41.3577 73.3352 40.4701 72.9748 39.8732 72.5839C39.2646 72.1842 39.0383 71.8093 39.0383 71.4913C39.0383 71.1677 39.2712 70.772 39.8828 70.3426C40.4815 69.9221 41.3702 69.5232 42.4983 69.1787C44.7498 68.4922 47.8772 68.0469 51.334 68.0469C54.7939 68.0469 57.9127 68.4522 60.1549 69.1002C61.2785 69.4246 62.1616 69.8043 62.7555 70.2104C63.3612 70.6238 63.5897 71.0091 63.5897 71.3311Z" fill="#975122"/>
<path d="M63.5897 71.3311C63.5897 71.6531 63.3612 72.0384 62.7555 72.4517C62.1616 72.8578 61.2785 73.2375 60.1549 73.5619C57.9127 74.21 54.7939 74.6153 51.334 74.6153C47.8713 74.6153 44.7407 74.2492 42.4871 73.6404C41.3577 73.3352 40.4701 72.9748 39.8732 72.5839C39.2646 72.1842 39.0383 71.8093 39.0383 71.4913C39.0383 71.1677 39.2712 70.772 39.8828 70.3426C40.4815 69.9221 41.3702 69.5232 42.4983 69.1787C44.7498 68.4922 47.8772 68.0469 51.334 68.0469C54.7939 68.0469 57.9127 68.4522 60.1549 69.1002C61.2785 69.4246 62.1616 69.8043 62.7555 70.2104C63.3612 70.6238 63.5897 71.0091 63.5897 71.3311Z" fill="url(#paint1_linear_2619_868)" fill-opacity="0.8"/>
<path d="M63.5897 71.3311C63.5897 71.6531 63.3612 72.0384 62.7555 72.4517C62.1616 72.8578 61.2785 73.2375 60.1549 73.5619C57.9127 74.21 54.7939 74.6153 51.334 74.6153C47.8713 74.6153 44.7407 74.2492 42.4871 73.6404C41.3577 73.3352 40.4701 72.9748 39.8732 72.5839C39.2646 72.1842 39.0383 71.8093 39.0383 71.4913C39.0383 71.1677 39.2712 70.772 39.8828 70.3426C40.4815 69.9221 41.3702 69.5232 42.4983 69.1787C44.7498 68.4922 47.8772 68.0469 51.334 68.0469C54.7939 68.0469 57.9127 68.4522 60.1549 69.1002C61.2785 69.4246 62.1616 69.8043 62.7555 70.2104C63.3612 70.6238 63.5897 71.0091 63.5897 71.3311Z" stroke="black" stroke-width="0.5"/>
<path d="M38.7407 62.4405L39.7833 70.6093C49.4517 66.1652 57.1544 68.2871 63.0919 70.6093L63.5725 62.1201C55.3219 58.6357 48.7936 57.9932 38.7407 62.4405Z" fill="#FF620E"/>
<path d="M38.7407 62.4405L39.7833 70.6093C49.4517 66.1652 57.1544 68.2871 63.0919 70.6093L63.5725 62.1201C55.3219 58.6357 48.7936 57.9932 38.7407 62.4405Z" fill="url(#paint2_linear_2619_868)" fill-opacity="0.8"/>
<path d="M38.7407 62.4405L39.7833 70.6093C49.4517 66.1652 57.1544 68.2871 63.0918 70.6093L63.5725 62.1201C55.3219 58.6357 48.7936 57.9932 38.7407 62.4405Z" stroke="black" stroke-width="0.5"/>
<path d="M41.3444 69.4105L40.7837 62.2414C41.5046 61.961 41.9051 61.8008 42.586 61.6406L43.2268 68.7697C42.7061 68.9299 42.0653 69.1301 41.3444 69.4105Z" fill="white" stroke="white" stroke-width="0.5"/>
<path d="M44.5479 68.3684L43.9071 61.2393C44.2676 61.1192 44.5079 61.0791 44.8283 61.0391L45.7895 68.088C45.5092 68.128 45.3089 68.1681 44.5479 68.3684Z" fill="white" stroke="white" stroke-width="0.5"/>
<g filter="url(#filter1_d_2619_868)">
<path d="M53.2399 30.7186C48.8342 31.039 47.2722 31.9201 46.2309 32.4408C45.1095 33.1216 43.3072 35.2443 41.8253 37.7676C40.9735 36.528 44.376 32.151 45.4699 31.3994C46.5637 30.6478 52.3881 29.479 53.2399 30.7186Z" fill="black"/>
<path d="M38.9416 40.551C35.0566 41.1734 33.5748 41.4321 32.3731 42.4149C31.1715 43.3978 30.6508 45.4004 29.4495 47.5014C29.1291 46.2599 30.5985 42.0635 31.6923 41.3119C32.8139 40.3106 37.3798 39.79 38.9416 40.551Z" fill="black"/>
</g>
<path d="M39.7393 56.7561C39.7406 56.756 39.7419 56.756 39.7431 56.7559C39.7395 56.7519 39.7363 56.7476 39.7331 56.743C39.7127 56.7135 39.703 56.6768 39.7021 56.6352L39.7 56.5451L39.7683 56.604C39.7995 56.631 39.8239 56.6562 39.8405 56.6796C39.8518 56.6955 39.8615 56.7133 39.8655 56.7321C39.9075 56.7378 39.9659 56.7309 40.0398 56.7091C40.2163 56.6574 40.4534 56.5304 40.6909 56.3704C40.9278 56.2108 41.1616 56.0207 41.3313 55.8453C41.4162 55.7575 41.4841 55.6745 41.5283 55.6017C41.5605 55.5488 41.5779 55.505 41.583 55.4706C39.4663 55.661 37.9831 55.3065 36.9567 54.6329C35.923 53.9544 35.3581 52.9557 35.0749 51.8782C34.8466 51.0097 34.788 50.0232 34.7452 49.2996C34.7408 49.2273 34.7367 49.1577 34.7326 49.0912C34.7212 48.9072 34.7098 48.7466 34.6954 48.6163C34.6808 48.4849 34.6634 48.3883 34.6413 48.3304C34.63 48.3007 34.6197 48.2876 34.6135 48.2829C34.6111 48.2812 34.6102 48.2813 34.6102 48.2813C34.6099 48.2813 34.6075 48.2812 34.6023 48.2839C34.5906 48.2899 34.5725 48.3056 34.5484 48.3383C34.5257 48.3691 34.4996 48.412 34.4701 48.4684C33.8845 51.8043 35.4412 54.0408 37.0279 55.3426C37.8221 55.9942 38.623 56.4108 39.1643 56.6125C39.4368 56.7141 39.6381 56.7593 39.7393 56.7561Z" fill="black" stroke="black" stroke-width="0.5"/>
<path d="M41.6245 55.5132C41.6245 56.038 38.1771 58.7573 37.3085 58.7573C36.4398 58.7573 34.9308 58.2332 34.4553 57.84C34.4553 57.3153 37.1988 58.4625 38.0401 57.5124C38.9087 57.5124 41.6245 54.9884 41.6245 55.5132Z" fill="black"/>
<g filter="url(#filter2_d_2619_868)">
<path d="M62.8074 49.9459C62.1265 52.7895 60.2842 56.4742 54.6371 56.0737C54.5575 56.6287 60.2482 56.5543 60.2482 55.7933C59.0066 56.9148 65.0904 53.3102 63.3321 44.4785C62.6447 43.2251 63.412 47.4214 62.8074 49.9459Z" fill="black"/>
<path d="M60.4272 55.7092C60.3751 55.7543 60.3275 55.7931 60.2853 55.8257C60.2872 55.8148 60.2882 55.8037 60.2882 55.7923V55.7022L60.2213 55.7626C60.1433 55.833 60.0918 55.8869 60.0651 55.9235C60.0584 55.9328 60.0525 55.9419 60.0482 55.9505C60.0443 55.9582 60.0396 55.9696 60.0395 55.9824C60.023 55.9915 60.0054 56.0005 59.9866 56.0095C59.8356 56.0811 59.6174 56.1435 59.3524 56.196C58.8232 56.3007 58.1168 56.3639 57.4115 56.386C56.7063 56.4082 56.0045 56.3892 55.4847 56.3303C55.2244 56.3007 55.012 56.2615 54.868 56.2133C54.7957 56.189 54.7438 56.1635 54.7119 56.1381C54.7022 56.1304 54.6949 56.1232 54.6896 56.1164C57.4924 56.3028 59.3601 55.4814 60.6126 54.254C61.8719 53.0198 62.5051 51.3794 62.8464 49.9541C63.1501 48.6858 63.109 47 63.0787 45.7935L63.0785 45.783C63.0634 45.1819 63.0514 44.7044 63.0849 44.4533C63.0933 44.3902 63.1041 44.345 63.1168 44.3166C63.1231 44.3025 63.1288 44.2951 63.1327 44.2915C63.1345 44.2899 63.1356 44.2894 63.1359 44.2892C63.1361 44.2891 63.1363 44.2891 63.1368 44.2891C63.1378 44.2891 63.1428 44.2895 63.1526 44.2961C63.1622 44.3026 63.1744 44.3136 63.1892 44.3307C63.2181 44.3643 63.2528 44.4168 63.294 44.4914C64.1684 48.8933 63.0903 51.9902 61.9497 53.8464C61.3788 54.7754 60.7924 55.3937 60.4272 55.7092Z" stroke="black" stroke-width="0.5"/>
</g>
<path d="M59.8875 55.0312C61.0376 56.4853 59.0158 55.481 60.5283 56.5532C61.4702 57.2209 62.7452 57.7654 63.8641 58.0502C66.0058 58.5953 67.1553 57.5973 69.419 57.1539C69.419 57.1539 65.6542 57.5143 64.4238 57.3259C63.1924 57.1375 62.9446 57.2259 62.0098 56.8335C61.075 56.4411 59.8875 55.0312 59.8875 55.0312Z" fill="black" stroke="black" stroke-width="0.5"/>
<g filter="url(#filter3_d_2619_868)">
<path d="M54.3098 49.994L56.2428 51.919C56.4213 52.0968 56.4213 52.3859 56.2428 52.5637C56.0653 52.7405 55.7782 52.7405 55.6007 52.5637L53.6651 50.6361C53.6143 50.5854 53.6143 50.5032 53.6651 50.4526C53.7159 50.402 53.7159 50.3197 53.6651 50.2691L49.1057 45.7284C48.9784 45.6016 48.7725 45.6016 48.6452 45.7284C48.5178 45.8552 48.312 45.8552 48.1846 45.7284L45.6386 43.1929C45.5515 43.106 45.6224 42.958 45.7446 42.9715C45.7739 42.9748 45.8012 42.9879 45.8221 43.0086L47.4957 44.6755C47.7493 44.928 48.1594 44.928 48.413 44.6755C48.6681 44.4214 48.6681 44.0084 48.413 43.7544L46.7492 42.0973C46.7247 42.073 46.7109 42.0398 46.7109 42.0053C46.7109 41.8895 46.8507 41.8315 46.9326 41.9132L49.5663 44.5359C49.6933 44.6625 49.6933 44.8681 49.5663 44.9946C49.4393 45.1211 49.4393 45.3268 49.5663 45.4533L54.1257 49.994C54.1511 50.0193 54.1923 50.0193 54.2177 49.994C54.2432 49.9686 54.2843 49.9686 54.3098 49.994Z" fill="#213639" stroke="black" stroke-width="0.1"/>
<path d="M48.2102 50.1858L46.2269 52.2123L46.0114 52.4709L46.5287 52.9452L48.8138 50.7894L48.6845 50.66L53.2548 46.2623L54.2895 47.0384C54.2895 47.0384 57.3571 45.9523 57.3507 44.3652C57.3447 42.8404 56.0295 41.6608 54.5051 41.692C52.8946 41.7249 51.7888 44.7963 51.7888 44.7963L52.7805 45.788L48.2964 50.272L48.2102 50.1858Z" fill="#213639" stroke="black" stroke-width="0.1"/>
<path d="M54.8692 42.8774L52.8455 44.8636C52.762 44.9456 52.628 44.9449 52.5451 44.8622C52.4613 44.7782 52.4619 44.6421 52.5466 44.559L54.5702 42.5728C54.6538 42.4908 54.7878 42.4914 54.8706 42.5742C54.9545 42.6581 54.9538 42.7944 54.8692 42.8774Z" fill="white" stroke="black" stroke-width="0.1"/>
<path d="M55.6446 43.6548L53.621 45.6409C53.5374 45.723 53.4034 45.7223 53.3206 45.6396C53.2367 45.5556 53.2373 45.4195 53.322 45.3363L55.3456 43.3502C55.4291 43.2681 55.5632 43.2688 55.646 43.3516C55.7299 43.4355 55.7293 43.5716 55.6446 43.6548Z" fill="white" stroke="black" stroke-width="0.1"/>
<path d="M56.4209 44.4282L54.3973 46.4143C54.3137 46.4963 54.1797 46.4957 54.0969 46.4129C54.013 46.3291 54.0137 46.1928 54.0983 46.1098L56.122 44.1236C56.2055 44.0416 56.3395 44.0422 56.4224 44.125C56.5062 44.2088 56.5056 44.3451 56.4209 44.4282Z" fill="white" stroke="black" stroke-width="0.1"/>
</g>
</g>
<defs>
<filter id="filter0_d_2619_868" x="20.4525" y="25.5977" width="58.427" height="52.2773" filterUnits="userSpaceOnUse" color-interpolation-filters="sRGB">
<feFlood flood-opacity="0" result="BackgroundImageFix"/>
<feColorMatrix in="SourceAlpha" type="matrix" values="0 0 0 0 0 0 0 0 0 0 0 0 0 0 0 0 0 0 127 0" result="hardAlpha"/>
<feOffset dx="-2" dy="2"/>
<feGaussianBlur stdDeviation="2"/>
<feComposite in2="hardAlpha" operator="out"/>
<feColorMatrix type="matrix" values="0 0 0 0 0 0 0 0 0 0 0 0 0 0 0 0 0 0 0.4 0"/>
<feBlend mode="normal" in2="BackgroundImageFix" result="effect1_dropShadow_2619_868"/>
<feBlend mode="normal" in="SourceGraphic" in2="effect1_dropShadow_2619_868" result="shape"/>
</filter>
<filter id="filter1_d_2619_868" x="29.4048" y="30.1758" width="31.8351" height="25.3242" filterUnits="userSpaceOnUse" color-interpolation-filters="sRGB">
<feFlood flood-opacity="0" result="BackgroundImageFix"/>
<feColorMatrix in="SourceAlpha" type="matrix" values="0 0 0 0 0 0 0 0 0 0 0 0 0 0 0 0 0 0 127 0" result="hardAlpha"/>
<feOffset dx="4" dy="4"/>
<feGaussianBlur stdDeviation="2"/>
<feComposite in2="hardAlpha" operator="out"/>
<feColorMatrix type="matrix" values="0 0 0 0 0 0 0 0 0 0 0 0 0 0 0 0 0 0 0.6 0"/>
<feBlend mode="normal" in2="BackgroundImageFix" result="effect1_dropShadow_2619_868"/>
<feBlend mode="normal" in="SourceGraphic" in2="effect1_dropShadow_2619_868" result="shape"/>
</filter>
<filter id="filter2_d_2619_868" x="46.1409" y="44.0391" width="17.7225" height="20.6055" filterUnits="userSpaceOnUse" color-interpolation-filters="sRGB">
<feFlood flood-opacity="0" result="BackgroundImageFix"/>
<feColorMatrix in="SourceAlpha" type="matrix" values="0 0 0 0 0 0 0 0 0 0 0 0 0 0 0 0 0 0 127 0" result="hardAlpha"/>
<feOffset dx="-4" dy="4"/>
<feGaussianBlur stdDeviation="2"/>
<feComposite in2="hardAlpha" operator="out"/>
<feColorMatrix type="matrix" values="0 0 0 0 0 0 0 0 0 0 0 0 0 0 0 0 0 0 0.5 0"/>
<feBlend mode="normal" in2="BackgroundImageFix" result="effect1_dropShadow_2619_868"/>
<feBlend mode="normal" in="SourceGraphic" in2="effect1_dropShadow_2619_868" result="shape"/>
</filter>
<filter id="filter3_d_2619_868" x="31.5498" y="35.6406" width="31.851" height="31.3711" filterUnits="userSpaceOnUse" color-interpolation-filters="sRGB">
<feFlood flood-opacity="0" result="BackgroundImageFix"/>
<feColorMatrix in="SourceAlpha" type="matrix" values="0 0 0 0 0 0 0 0 0 0 0 0 0 0 0 0 0 0 127 0" result="hardAlpha"/>
<feOffset dx="-4" dy="4"/>
<feGaussianBlur stdDeviation="5"/>
<feComposite in2="hardAlpha" operator="out"/>
<feColorMatrix type="matrix" values="0 0 0 0 0 0 0 0 0 0 0 0 0 0 0 0 0 0 0.4 0"/>
<feBlend mode="normal" in2="BackgroundImageFix" result="effect1_dropShadow_2619_868"/>
<feBlend mode="normal" in="SourceGraphic" in2="effect1_dropShadow_2619_868" result="shape"/>
</filter>
<linearGradient id="paint0_linear_2619_868" x1="38.5407" y1="41.2133" x2="71.0624" y2="67.1664" gradientUnits="userSpaceOnUse">
<stop stop-color="white"/>
<stop offset="0.575" stop-color="#E6E6E6"/>
<stop offset="0.901119" stop-color="#BBAFAF"/>
</linearGradient>
<linearGradient id="paint1_linear_2619_868" x1="51.8131" y1="74.6649" x2="51.6647" y2="68.6204" gradientUnits="userSpaceOnUse">
<stop stop-opacity="0"/>
<stop offset="1" stop-color="#2F1B09"/>
</linearGradient>
<linearGradient id="paint2_linear_2619_868" x1="38.7808" y1="64.9236" x2="62.8115" y2="66.3254" gradientUnits="userSpaceOnUse">
<stop stop-color="#DACBBE" stop-opacity="0"/>
<stop offset="1" stop-color="#C74408"/>
</linearGradient>
<clipPath id="clip0_2619_868">
<rect width="104" height="104" fill="white"/>
</clipPath>
</defs>
</svg>
