<svg width="36" height="36" viewBox="0 0 36 36" fill="none" xmlns="http://www.w3.org/2000/svg">
<g clip-path="url(#clip0_5055_159)">
<path d="M1.45361 18.001L13.2277 26.9552L12.3046 20.678H26.1459V15.1395H12.3046L13.2277 9.04688L1.45361 18.001Z" fill="#D8C3A5"/>
<path d="M8.51562 31.3834H30.854V4.6142H8.51562V0.921875H32.705C33.7246 0.921875 34.5464 1.7484 34.5464 2.768V33.2296C34.5464 34.2492 33.7246 35.0757 32.705 35.0757H8.51562V31.3834Z" fill="white"/>
<path d="M13.2279 27.8754C13.3896 27.8754 13.5519 27.833 13.6971 27.7472C14.0202 27.5565 14.1957 27.1892 14.1412 26.818L13.3735 21.5982H26.1922C26.7019 21.5982 27.0692 21.1848 27.0692 20.6751V15.1367C27.0692 14.627 26.702 14.2136 26.1922 14.2136H13.3782L14.1404 9.18241C14.1968 8.81081 14.0221 8.44202 13.6988 8.25021C13.3756 8.05861 12.9683 8.08181 12.669 8.30941L0.89498 17.2634C0.66548 17.4381 0.530762 17.7098 0.530762 17.9982C0.530762 18.2865 0.665551 18.5583 0.89498 18.733L12.669 27.6871C12.8333 27.812 13.0302 27.8754 13.2279 27.8754ZM11.3915 20.8094L11.9854 24.8477L2.97876 17.9982L11.9741 11.1573L11.3921 14.9984C11.3518 15.2643 11.4294 15.5346 11.6049 15.7385C11.7802 15.9425 12.0358 16.0597 12.3048 16.0597H25.2231V19.7521H12.3048C12.0366 19.7521 11.7816 19.8689 11.6062 20.0719C11.4308 20.2748 11.3524 20.5441 11.3915 20.8094Z" fill="#D8C3A5"/>
<path d="M32.7048 0H8.56154C8.05185 0 7.59229 0.413367 7.59229 0.923063V4.61538C7.59229 5.12508 8.05178 5.53844 8.56154 5.53844H29.9308V30.4616H8.56154C8.05185 30.4616 7.59229 30.8749 7.59229 31.3846V35.0769C7.59229 35.5866 8.05178 36 8.56154 36H32.7048C34.2546 36 35.4692 34.7577 35.4692 33.2307V2.76926C35.4692 1.24228 34.2546 0 32.7048 0ZM33.6231 33.2307C33.6231 33.7312 33.2276 34.1538 32.7048 34.1538H9.43848V32.3077H30.9C31.4097 32.3077 31.777 31.8943 31.777 31.3846V4.61538C31.777 4.10569 31.4098 3.69232 30.9 3.69232H9.43848V1.84613H32.7048C33.2276 1.84613 33.6231 2.26877 33.6231 2.76919V33.2307Z" fill="white"/>
</g>
<defs>
<clipPath id="clip0_5055_159">
<rect width="36" height="36" fill="white"/>
</clipPath>
</defs>
</svg>
