<svg width="36" height="36" viewBox="0 0 36 36" fill="none" xmlns="http://www.w3.org/2000/svg">
<path d="M23.6151 4.84277C23.6151 4.84277 23.9425 3.96605 25.7058 2.85314C27.3977 1.78636 26.0991 0.311977 23.6151 0.854719C21.9002 1.22829 22.4824 0 20.0775 0C17.6726 0 18.2549 1.22829 16.5399 0.854719C14.0559 0.311977 12.7573 1.78636 14.4492 2.85314C16.2125 3.96605 16.5399 4.84277 16.5399 4.84277H23.6151Z" fill="white"/>
<path d="M30.3795 15.7804C30.3795 15.2782 30.0818 14.8465 29.6533 14.6477C30.0818 14.4477 30.3806 14.0171 30.3806 13.515C30.3806 13.0119 30.0818 12.5801 29.6533 12.3812C30.0806 12.1824 30.3795 11.7517 30.3795 11.2474C30.3795 10.5564 29.8191 9.99609 29.127 9.99609H24.9522C24.2612 9.99609 23.6997 10.5564 23.6997 11.2474C23.6997 11.7517 23.9985 12.1824 24.427 12.3812C23.9985 12.5801 23.6997 13.0119 23.6997 13.515C23.6997 14.0171 23.9985 14.4478 24.427 14.6477C23.9985 14.8465 23.6997 15.2783 23.6997 15.7804C23.6997 16.2835 23.9985 16.7153 24.427 16.913C23.9985 17.113 23.6997 17.5436 23.6997 18.0468C23.6997 18.739 24.2611 19.2993 24.9522 19.2993H29.127C29.818 19.2993 30.3795 18.739 30.3795 18.0468C30.3795 17.5436 30.0806 17.113 29.6533 16.9141C30.0806 16.7153 30.3795 16.2835 30.3795 15.7804Z" fill="white"/>
<path d="M24.3424 6.30469C22.9361 6.30469 16.3795 6.30469 16.3795 6.30469C12.9364 6.30469 11.974 8.99963 9.30762 8.99963V17.5525L10.4733 17.4986C19.381 16.8087 18.6031 9.11824 18.6031 9.11824C18.6031 9.11824 20.7873 9.11824 23.6019 9.11824C26.4156 9.11824 26.5639 6.30469 24.3424 6.30469Z" fill="white"/>
<path d="M8.10453 8H4.54932V19.551H8.10453V8Z" fill="white"/>
<path d="M21.7903 25.9298C22.0704 25.732 22.211 25.4189 22.211 24.9882C22.211 24.5421 22.0847 24.2247 21.832 24.0346C21.5793 23.8456 21.1838 23.75 20.6466 23.75H19.5293V26.2264H20.5587C21.0992 26.2264 21.5101 26.1275 21.7903 25.9298Z" fill="white"/>
<path d="M22.1441 27.6511C22.0177 27.5468 21.8562 27.4654 21.6585 27.4105C21.4608 27.3556 21.2224 27.3281 20.9422 27.3281H19.5293V29.8396H20.9476C21.2443 29.8396 21.4914 29.8033 21.6914 29.733C21.8903 29.6616 22.0506 29.5672 22.1704 29.4485C22.2913 29.3298 22.3781 29.1925 22.4308 29.0343C22.4847 28.8761 22.511 28.7079 22.511 28.53C22.511 28.3443 22.4814 28.1773 22.422 28.0301C22.3638 27.8818 22.2704 27.7555 22.1441 27.6511Z" fill="white"/>
<path d="M30.4377 20.2731C30.0531 20.4994 29.606 20.6334 29.127 20.6334H24.9522C23.5272 20.6334 22.3671 19.4733 22.3671 18.0473C22.3671 17.6484 22.4604 17.2617 22.6319 16.9146C22.4604 16.5674 22.3671 16.1807 22.3671 15.7808C22.3671 15.382 22.4604 14.9953 22.6319 14.6481C22.4604 14.3009 22.3671 13.9142 22.3671 13.5155C22.3671 13.1155 22.4604 12.7288 22.6319 12.3817C22.4616 12.0345 22.3671 11.6478 22.3671 11.2479C22.3671 10.9688 22.4121 10.7008 22.4946 10.4492H19.9106C19.7908 11.7709 19.3492 13.7638 17.9001 15.4986C16.3213 17.386 13.9702 18.489 10.9171 18.7901C9.92394 20.7149 9.21533 22.7903 9.21533 24.8809C9.21533 31.0212 14.1932 35.9991 20.3324 35.9991C26.4726 35.9991 31.4505 31.0212 31.4505 24.8809C31.4506 23.3163 31.0518 21.7628 30.4377 20.2731ZM24.0788 29.5719C23.9403 29.8806 23.7393 30.1454 23.4745 30.3695C23.2108 30.5926 22.8845 30.7672 22.4967 30.8936C22.1111 31.0199 21.6684 31.0826 21.1707 31.0826H20.996V31.9494H19.6425V31.0826H17.9363H17.3771V30.3871C17.3771 30.1816 17.3639 30.0586 17.5606 30.0158C17.5782 30.0125 17.6034 30.0092 17.6353 30.0026C17.6683 29.996 17.7265 29.9861 17.8122 29.9707C17.8968 29.9553 17.788 29.9344 17.9364 29.9081V23.6909C17.7881 23.6656 17.8968 23.6448 17.8122 23.6294C17.7265 23.6129 17.6683 23.6041 17.6353 23.5975C17.6035 23.592 17.5782 23.5865 17.5606 23.5843C17.3639 23.5425 17.3771 23.4184 17.3771 23.213V22.5175H17.9363H19.6425V21.5914H20.996V22.5252C21.4091 22.5428 21.7717 22.5933 22.0826 22.6768C22.4803 22.7834 22.8066 22.9361 23.0604 23.1338C23.3152 23.3305 23.502 23.5689 23.6196 23.8501C23.7393 24.1303 23.7975 24.4456 23.7975 24.7972C23.7975 24.9993 23.769 25.1916 23.7096 25.3751C23.6492 25.5585 23.558 25.7311 23.4339 25.8915C23.3086 26.0508 23.1515 26.1958 22.9592 26.3266C22.7681 26.4562 22.5209 26.6584 22.5209 26.6584C23.6975 26.922 24.2864 27.5582 24.2864 28.5656C24.2864 28.9281 24.2172 29.2643 24.0788 29.5719Z" fill="white"/>
</svg>
