<svg width="36" height="36" viewBox="0 0 36 36" fill="none" xmlns="http://www.w3.org/2000/svg">
<path d="M16.1969 3.6V0C14.2054 0 12.5909 1.61177 12.5909 3.6H16.1969ZM16.1969 6.54163V3.6H12.5909V6.54163H16.1969ZM12.9891 10.517C13.3175 10.2973 13.6609 10.0987 14.0175 9.92309L12.422 6.69463C11.9221 6.94085 11.4411 7.21901 10.9817 7.52636L12.9891 10.517ZM6.40971 9.24115L8.96362 10.7132L10.7667 7.59546L8.21274 6.12346L6.40971 9.24115ZM6.40971 9.24115L8.21274 6.12346C6.48799 5.12933 4.28256 5.71928 3.28676 7.44115L6.40971 9.24115ZM4.60667 12.3588L6.40971 9.24115L3.28676 7.44115L1.48372 10.5588L4.60667 12.3588ZM4.60667 12.3588L1.48372 10.5588C0.487938 12.2807 1.07888 14.4824 2.80363 15.4766L4.60667 12.3588ZM7.16081 13.831L4.60667 12.3588L2.80363 15.4766L5.35778 16.9486L7.16081 13.831ZM8.98482 18C8.98482 17.7993 8.99137 17.6004 9.00424 17.4035L5.40581 17.1693C5.38785 17.4442 5.37875 17.7212 5.37875 18H8.98482ZM9.00424 18.5965C8.99137 18.3996 8.98482 18.2007 8.98482 18H5.37875C5.37875 18.2788 5.38785 18.5558 5.40581 18.8307L9.00424 18.5965ZM4.60667 23.6412L7.16081 22.169L5.35778 19.0514L2.80363 20.5234L4.60667 23.6412ZM4.60667 23.6412L2.80363 20.5234C1.07888 21.5176 0.487938 23.7193 1.48372 25.4412L4.60667 23.6412ZM6.40971 26.7588L4.60667 23.6412L1.48372 25.4412L3.28676 28.5588L6.40971 26.7588ZM6.40971 26.7588L3.28676 28.5588C4.28256 30.2807 6.48799 30.8707 8.21274 29.8766L6.40971 26.7588ZM8.9636 25.2868L6.40971 26.7588L8.21274 29.8766L10.7666 28.4045L8.9636 25.2868ZM14.0175 26.077C13.6609 25.9013 13.3175 25.7027 12.9891 25.483L10.9816 28.4737C11.4411 28.7809 11.9221 29.0592 12.422 29.3054L14.0175 26.077ZM16.1969 32.4V29.4584H12.5909V32.4H16.1969ZM16.1969 32.4H12.5909C12.5909 34.3883 14.2054 36 16.1969 36V32.4ZM19.803 32.4H16.1969V36H19.803V32.4ZM19.803 32.4V36C21.7946 36 23.409 34.3883 23.409 32.4H19.803ZM19.803 29.4584V32.4H23.409V29.4584H19.803ZM23.0109 25.483C22.6826 25.7027 22.3391 25.9013 21.9825 26.077L23.578 29.3054C24.078 29.0592 24.5588 28.7809 25.0184 28.4737L23.0109 25.483ZM29.5904 26.7588L27.0364 25.2868L25.2333 28.4045L27.7872 29.8766L29.5904 26.7588ZM29.5904 26.7588L27.7872 29.8766C29.5118 30.8707 31.7174 30.2807 32.7132 28.5588L29.5904 26.7588ZM31.3934 23.6412L29.5904 26.7588L32.7132 28.5588L34.5163 25.4412L31.3934 23.6412ZM31.3934 23.6412L34.5163 25.4412C35.5121 23.7193 34.9211 21.5176 33.1964 20.5234L31.3934 23.6412ZM28.8392 22.169L31.3934 23.6412L33.1964 20.5234L30.6423 19.0514L28.8392 22.169ZM27.0151 18C27.0151 18.2007 27.0086 18.3996 26.9958 18.5965L30.5941 18.8307C30.6122 18.5558 30.6212 18.2788 30.6212 18H27.0151ZM26.9958 17.4035C27.0086 17.6004 27.0151 17.7993 27.0151 18H30.6212C30.6212 17.7212 30.6122 17.4442 30.5941 17.1693L26.9958 17.4035ZM31.3934 12.3588L28.8392 13.831L30.6423 16.9486L33.1964 15.4766L31.3934 12.3588ZM31.3934 12.3588L33.1964 15.4766C34.9211 14.4824 35.5121 12.2807 34.5163 10.5588L31.3934 12.3588ZM29.5904 9.24115L31.3934 12.3588L34.5163 10.5588L32.7132 7.44115L29.5904 9.24115ZM29.5904 9.24115L32.7132 7.44115C31.7174 5.71928 29.5119 5.12933 27.7873 6.12346L29.5904 9.24115ZM27.0364 10.7131L29.5904 9.24115L27.7873 6.12346L25.2333 7.59546L27.0364 10.7131ZM21.9825 9.92309C22.3391 10.0987 22.6826 10.2973 23.0109 10.517L25.0184 7.52636C24.5588 7.21901 24.078 6.94085 23.578 6.69463L21.9825 9.92309ZM19.803 3.6V6.54161H23.409V3.6H19.803ZM19.803 3.6H23.409C23.409 1.61177 21.7946 0 19.803 0V3.6ZM16.1969 3.6H19.803V0H16.1969V3.6ZM23.578 6.69463C23.501 6.65667 23.4507 6.60695 23.4258 6.57045C23.4038 6.53846 23.409 6.53018 23.409 6.54161H19.803C19.803 8.10538 20.7928 9.33716 21.9825 9.92309L23.578 6.69463ZM25.2333 7.59546C25.2433 7.58979 25.2387 7.59838 25.2005 7.5955C25.1567 7.5922 25.0891 7.57372 25.0184 7.52636L23.0109 10.517C24.1147 11.2555 25.6796 11.4952 27.0364 10.7131L25.2333 7.59546ZM30.5941 17.1693C30.5887 17.0843 30.6066 17.0167 30.6255 16.9772C30.6423 16.9427 30.652 16.943 30.6423 16.9486L28.8392 13.831C27.4844 14.6119 26.9094 16.0816 26.9958 17.4035L30.5941 17.1693ZM25.0184 28.4737C25.0891 28.4263 25.1567 28.4078 25.2005 28.4045C25.2387 28.4017 25.2433 28.4101 25.2333 28.4045L27.0364 25.2868C25.6796 24.5048 24.1147 24.7446 23.0109 25.483L25.0184 28.4737ZM30.6423 19.0514C30.652 19.057 30.6423 19.0573 30.6255 19.0228C30.6066 18.9832 30.5887 18.9157 30.5941 18.8307L26.9958 18.5965C26.9094 19.9184 27.4844 21.3881 28.8392 22.169L30.6423 19.0514ZM12.422 29.3054C12.4991 29.3434 12.5494 29.3931 12.5743 29.4295C12.5961 29.4615 12.5909 29.4698 12.5909 29.4584H16.1969C16.1969 27.8946 15.2072 26.6629 14.0175 26.077L12.422 29.3054ZM10.7666 28.4045C10.7568 28.4101 10.7612 28.4017 10.7995 28.4045C10.8432 28.4078 10.9108 28.4263 10.9816 28.4737L12.9891 25.483C11.8852 24.7446 10.3205 24.5048 8.9636 25.2868L10.7666 28.4045ZM23.409 29.4584C23.409 29.4698 23.4038 29.4615 23.4258 29.4295C23.4507 29.3931 23.501 29.3434 23.578 29.3054L21.9825 26.077C20.7928 26.6629 19.803 27.8946 19.803 29.4584H23.409ZM5.40581 18.8307C5.41135 18.9155 5.3935 18.9832 5.37446 19.0228C5.35776 19.0573 5.34801 19.057 5.35778 19.0514L7.16081 22.169C8.5156 21.3881 9.0906 19.9184 9.00424 18.5965L5.40581 18.8307ZM5.35778 16.9486C5.34801 16.943 5.35776 16.9427 5.37446 16.9772C5.3935 17.0167 5.41135 17.0843 5.40581 17.1693L9.00424 17.4035C9.0906 16.0816 8.5156 14.6119 7.16081 13.831L5.35778 16.9486ZM10.9817 7.52636C10.9109 7.57373 10.8432 7.5922 10.7995 7.5955C10.7613 7.59839 10.7568 7.58979 10.7667 7.59546L8.96362 10.7132C10.3205 11.4952 11.8852 11.2555 12.9891 10.517L10.9817 7.52636ZM12.5909 6.54163C12.5909 6.53018 12.5961 6.53846 12.5743 6.57045C12.5494 6.60695 12.4991 6.65667 12.422 6.69463L14.0175 9.92309C15.2072 9.33716 16.1969 8.10538 16.1969 6.54163H12.5909Z" fill="white"/>
<path d="M18 22.5C20.4853 22.5 22.5 20.4853 22.5 18C22.5 15.5147 20.4853 13.5 18 13.5C15.5147 13.5 13.5 15.5147 13.5 18C13.5 20.4853 15.5147 22.5 18 22.5Z" stroke="white" stroke-width="2" stroke-linecap="round" stroke-linejoin="round"/>
</svg>
