<svg width="44" height="38" viewBox="0 0 44 38" fill="none" xmlns="http://www.w3.org/2000/svg">
<path d="M31.091 36.0012V32.2235C31.091 30.2196 30.3247 28.2979 28.9608 26.8809C27.5969 25.464 25.7471 24.668 23.8182 24.668H9.27274C7.34389 24.668 5.49404 25.464 4.13014 26.8809C2.76623 28.2979 2 30.2196 2 32.2235V36.0012" stroke="black" stroke-width="4" stroke-linecap="round" stroke-linejoin="round"/>
<path d="M16.5454 17.111C20.562 17.111 23.8181 13.7283 23.8181 9.5555C23.8181 5.38271 20.562 2 16.5454 2C12.5288 2 9.27264 5.38271 9.27264 9.5555C9.27264 13.7283 12.5288 17.111 16.5454 17.111Z" stroke="black" stroke-width="4" stroke-linecap="round" stroke-linejoin="round"/>
<path d="M31.0908 17.1094H41.9999" stroke="black" stroke-width="4" stroke-linecap="round" stroke-linejoin="round"/>
<path d="M36.5454 11.4453V22.7786" stroke="black" stroke-width="4" stroke-linecap="round" stroke-linejoin="round"/>
</svg>
