<svg width="211" height="31" viewBox="0 0 211 31" fill="none" xmlns="http://www.w3.org/2000/svg">
<path d="M18.7422 10.7871L18.7979 10.96H29.4727L20.9834 17.127L20.8369 17.2344L20.8926 17.4072L24.1348 27.3848L15.6465 21.2178L15.5 21.1113L15.3535 21.2178L6.86426 27.3848L10.1074 17.4072L10.1631 17.2344L10.0166 17.127L1.52734 10.96H12.2021L12.2578 10.7871L15.5 0.806641L18.7422 10.7871Z" fill="#FF620E" stroke="black" stroke-width="0.5"/>
<path d="M63.7422 10.7871L63.7979 10.96H74.4727L65.9834 17.127L65.8369 17.2344L65.8926 17.4072L69.1348 27.3848L60.6465 21.2178L60.5 21.1113L60.3535 21.2178L51.8643 27.3848L55.1074 17.4072L55.1631 17.2344L55.0166 17.127L46.5273 10.96H57.2021L57.2578 10.7871L60.5 0.806641L63.7422 10.7871Z" fill="#FF620E" stroke="black" stroke-width="0.5"/>
<path d="M108.742 10.7871L108.798 10.96H119.473L110.983 17.127L110.837 17.2344L110.893 17.4072L114.135 27.3848L105.646 21.2178L105.5 21.1113L105.354 21.2178L96.8643 27.3848L100.107 17.4072L100.163 17.2344L100.017 17.127L91.5273 10.96H102.202L102.258 10.7871L105.5 0.806641L108.742 10.7871Z" fill="#FF620E" stroke="black" stroke-width="0.5"/>
<path d="M153.742 10.7871L153.798 10.96H164.473L155.983 17.127L155.837 17.2344L155.893 17.4072L159.135 27.3848L150.646 21.2178L150.5 21.1113L150.354 21.2178L141.864 27.3848L145.107 17.4072L145.163 17.2344L145.017 17.127L136.527 10.96H147.202L147.258 10.7871L150.5 0.806641L153.742 10.7871Z" fill="#FF620E" stroke="black" stroke-width="0.5"/>
<path d="M198.742 10.7871L198.798 10.96H209.473L200.983 17.127L200.837 17.2344L200.893 17.4072L204.135 27.3848L195.646 21.2178L195.5 21.1113L195.354 21.2178L186.864 27.3848L190.107 17.4072L190.163 17.2344L190.017 17.127L181.527 10.96H192.202L192.258 10.7871L195.5 0.806641L198.742 10.7871Z" fill="#FF620E" stroke="black" stroke-width="0.5"/>
</svg>
