<svg width="36" height="36" viewBox="0 0 36 36" fill="none" xmlns="http://www.w3.org/2000/svg">
<path d="M18 0C12.486 0 8 4.24989 8 9.47368C8 14.6975 12.486 18.9474 18 18.9474C23.514 18.9474 28 14.6975 28 9.47368C28 4.24989 23.514 0 18 0ZM18 15.1579C14.692 15.1579 12 12.6076 12 9.47368C12 6.33979 14.692 3.78947 18 3.78947C21.308 3.78947 24 6.33979 24 9.47368C24 12.6076 21.308 15.1579 18 15.1579ZM36 36V34.1053C36 26.7935 29.718 20.8421 22 20.8421H14C6.28 20.8421 0 26.7935 0 34.1053V36H4V34.1053C4 28.8815 8.486 24.6316 14 24.6316H22C27.514 24.6316 32 28.8815 32 34.1053V36H36Z" fill="white"/>
</svg>
