<svg width="34" height="38" viewBox="0 0 34 38" fill="none" xmlns="http://www.w3.org/2000/svg">
<path d="M17 0C11.7923 0 7.55556 4.486 7.55556 10C7.55556 15.514 11.7923 20 17 20C22.2077 20 26.4444 15.514 26.4444 10C26.4444 4.486 22.2077 0 17 0ZM17 16C13.8758 16 11.3333 13.308 11.3333 10C11.3333 6.692 13.8758 4 17 4C20.1242 4 22.6667 6.692 22.6667 10C22.6667 13.308 20.1242 16 17 16ZM34 38V36C34 28.282 28.067 22 20.7778 22H13.2222C5.93111 22 0 28.282 0 36V38H3.77778V36C3.77778 30.486 8.01456 26 13.2222 26H20.7778C25.9854 26 30.2222 30.486 30.2222 36V38H34Z" fill="white"/>
</svg>
